<svg xmlns="http://www.w3.org/2000/svg" width="199.971" height="64.842" viewBox="0 0 199.971 64.842">
  <g id="_1ed2649ba3bc113b76f9ee30f24be572" data-name="1ed2649ba3bc113b76f9ee30f24be572" transform="translate(-77.2 -85.6)">
    <g id="Group_33" data-name="Group 33" transform="translate(141.698 92.594)">
      <g id="Group_32" data-name="Group 32">
        <g id="Group_31" data-name="Group 31">
          <rect id="Rectangle_12" data-name="Rectangle 12" width="10.158" height="43.192" transform="translate(0 0.323)"/>
          <path id="Path_21" data-name="Path 21" d="M457.732,135.51l-4.842-.689a6.178,6.178,0,0,1-3.228-1.334,2.943,2.943,0,0,1-.861-2.152c0-2.539,2.023-4.11,5.273-4.11,2.5,0,5.337.3,7.683,2.518l.753.732,6.607-6.521-.8-.775c-3.637-3.508-7.963-5.079-14.01-5.079-4.562,0-8.436,1.291-11.191,3.745a12.663,12.663,0,0,0-4.175,9.77c0,3.745,1.055,6.65,3.271,8.845,2,1.937,4.8,3.142,8.565,3.7l4.95.689c1.808.28,2.5.624,3.056,1.162a3.6,3.6,0,0,1,.925,2.669c0,2.647-2.088,4-6.2,4-4.046,0-7.037-1.033-9.146-3.142l-.753-.753L436.9,155.5l.753.753c3.96,4.024,8.673,5.746,15.753,5.746,9.749,0,16.291-5.445,16.291-13.537,0-4.089-1.184-7.274-3.508-9.491C464.167,137.1,461.563,136.027,457.732,135.51Z" transform="translate(-423.988 -118.1)"/>
          <path id="Path_22" data-name="Path 22" d="M634.845,140.726a10.748,10.748,0,0,0,4.067-8.415c0-7.769-5.273-12.611-13.752-12.611H607.6v43.192h18.25a14.262,14.262,0,0,0,9.749-3.314,12.444,12.444,0,0,0,3.9-9.577A10.571,10.571,0,0,0,634.845,140.726Zm-17.088-4.433V129h6.758c2.69,0,4.218,1.334,4.218,3.659s-1.55,3.659-4.218,3.659h-6.758Zm11.557,13.3c0,2.5-1.593,4-4.283,4h-7.274v-7.941h7.274C628.906,145.654,629.315,148.409,629.315,149.592Z" transform="translate(-557.952 -119.356)"/>
          <path id="Path_23" data-name="Path 23" d="M801.633,119.6l-5.638,22.812L789.409,119.6h-7.618l-6.607,22.791L769.61,119.6H759l11.535,43.214h8.307L785.6,140.54l6.757,22.274h8.307L812.242,119.6Z" transform="translate(-676.769 -119.277)"/>
        </g>
      </g>
    </g>
    <g id="Group_37" data-name="Group 37" transform="translate(77.2 85.6)">
      <g id="Group_36" data-name="Group 36" transform="translate(0 0)">
        <g id="Group_35" data-name="Group 35">
          <path id="Path_24" data-name="Path 24" d="M109.73,184.422l-23.264-19.95L86.1,162.6l23.544,19.993Z" transform="translate(-84.185 -146.029)" fill="#8a0a09"/>
          <path id="Path_25" data-name="Path 25" d="M86.1,149.259l23.544,19.993,6.349-4.2L92.04,145.6Z" transform="translate(-84.185 -132.688)" fill="#e3001f"/>
          <path id="Path_26" data-name="Path 26" d="M169.826,95.908a11.254,11.254,0,0,0-11.6-.56c-.9.538-6.349,4.067-6.349,4.067a3.074,3.074,0,0,1-3.809-.6c-1.4-1.227-.882-2.453-.344-2.8.194-.108,11.428-7.253,11.428-7.253L154.525,85.6s-7.489,4.584-11.621,7.166a11.475,11.475,0,0,0-2.432,1.958,5.054,5.054,0,0,0-1.055,4.735,7.476,7.476,0,0,0,3.529,4.175,13.087,13.087,0,0,0,5.552,1.851,10.4,10.4,0,0,0,6.973-1.291c.56-.366,6.2-4.067,6.413-4.218a4.255,4.255,0,0,1,2.69-.6,4,4,0,0,1,2.647,1.463c.151.28.8,1.506-.968,2.755-.409.3-9.749,6.607-9.749,6.607l5.832,4.562,17.324-11.793c.022,0-9.232-6.714-9.835-7.059" transform="translate(-125.859 -85.6)" fill="#e3001f"/>
          <path id="Path_27" data-name="Path 27" d="M195.586,242.026l6.284-4.261L201.849,236l-6.349,4.2Z" transform="translate(-170.041 -203.633)" fill="#b70916"/>
          <path id="Path_28" data-name="Path 28" d="M234.428,182.8l-6.176,4.261s-1.614,16.27-1.743,17.755c-.172,1.506-.151,2.582-1.743,3.874-1.894,1.506-2.453.258-2.432-.71s1.377-17.862,1.377-17.862l-6.478,4.5s-.56,15.086-.646,17.324a4.986,4.986,0,0,1-2.174,4.24c-1.334,1.055-1.937.538-2-1.485.022-3.121.172-16.851.172-16.851l-6.284,4.326.624,24.383s15.215-11.126,19.993-14.634c3.164-2.669,4.046-3.981,4.627-8.242Z" transform="translate(-178.517 -161.882)" fill="#b70916"/>
          <path id="Path_29" data-name="Path 29" d="M202.137,293.1l-1.184-1.162L200.2,267.6l1.313,1.119Z" transform="translate(-173.729 -228.432)" fill="#8a0a09"/>
          <path id="Path_30" data-name="Path 30" d="M200.2,251.983l1.313,1.119,6.306-4.326-1.356-1.076Z" transform="translate(-173.729 -212.815)" fill="#e3001f"/>
          <path id="Path_31" data-name="Path 31" d="M301.9,182.44l6.176-4.24,1.377.99-6.176,4.261Z" transform="translate(-253.543 -158.272)" fill="#e3001f"/>
          <path id="Path_32" data-name="Path 32" d="M219.7,199.9l.022,1.808,5.768,4.541.043-1.786Z" transform="translate(-189.033 -175.302)" fill="#8a0a09"/>
          <path id="Path_33" data-name="Path 33" d="M164.673,146.918a4,4,0,0,1,2.647,1.463.843.843,0,0,1,.086.194A1.692,1.692,0,0,0,167.32,147a3.953,3.953,0,0,0-2.647-1.463,4.4,4.4,0,0,0-2.69.6c-.215.129-5.832,3.831-6.413,4.218a10.54,10.54,0,0,1-6.973,1.291,13.087,13.087,0,0,1-5.552-1.851,7.66,7.66,0,0,1-3.529-4.175,5.259,5.259,0,0,1-.215-1.227c0,.56.043,1.205.065,1.528a4.981,4.981,0,0,0,.151,1.1,7.476,7.476,0,0,0,3.529,4.175,13.087,13.087,0,0,0,5.552,1.851,10.4,10.4,0,0,0,6.973-1.291c.56-.366,6.2-4.067,6.413-4.218A4.108,4.108,0,0,1,164.673,146.918Z" transform="translate(-125.936 -131.746)" fill="#8a0a09"/>
          <path id="Path_34" data-name="Path 34" d="M246.6,179.88l17.131-11.686.237-1.894-17.324,11.793Z" transform="translate(-210.144 -148.933)" fill="#b70916"/>
          <path id="Path_35" data-name="Path 35" d="M283.624,220.54c1.571-1.291,1.571-2.367,1.743-3.874.129-1.485,1.743-17.755,1.743-17.755l-1.356-1.011s-1.27,15.667-1.571,18.831a3.533,3.533,0,0,1-1.442,2.927,8.417,8.417,0,0,1-1.442.861C281.515,221.229,282.182,221.7,283.624,220.54Z" transform="translate(-237.376 -173.732)" fill="#8a0a09"/>
          <path id="Path_36" data-name="Path 36" d="M237.272,255.4a5.037,5.037,0,0,0,2.174-4.24c.065-2.238.646-17.324.646-17.324l-1.334-1.033s-.3,11.191-.495,17.927A3.731,3.731,0,0,1,236.885,254a7.452,7.452,0,0,1-1.485.947C235.594,256.085,236.2,256.258,237.272,255.4Z" transform="translate(-201.354 -201.121)" fill="#8a0a09"/>
          <path id="Path_37" data-name="Path 37" d="M107.811,235.411h0l1.291-.861-.517-3.357L106.8,229.6Z" transform="translate(-100.43 -198.61)" fill="#c9061a"/>
          <path id="Path_38" data-name="Path 38" d="M112.891,252.6l-1.291.861c.129.129,6.413,5.983,6.93,6.306a1.077,1.077,0,0,0,1.549-.387,4.355,4.355,0,0,0,.086-.56,3.588,3.588,0,0,1-1.055-.646Z" transform="translate(-104.197 -216.66)" fill="#e3001f"/>
          <path id="Path_39" data-name="Path 39" d="M116.214,276.306,114.6,274.8l1.011,6h0l1.184-.775Z" transform="translate(-106.551 -234.083)" fill="#c9061a"/>
          <path id="Path_40" data-name="Path 40" d="M97.8,208s1.7-.022,1.636-3.314c-.043-2.862-1.42-5.488-2.927-7.855a38,38,0,0,0-7.468-8.221L77.2,178.3l5.251,26.664s9.469,9.189,9.792,9.469c0,0,2.884,3.228,5.036,3.917a2.56,2.56,0,0,0,3.142-2.324C101.045,212.023,97.8,208,97.8,208Zm-7.9-13.042c1.679,1.485,3.723,4.283,3.185,6.112a1.077,1.077,0,0,1-1.549.387c-.538-.323-6.951-6.306-6.951-6.306l-.99-5.811Zm.818,9.211c1.679,1.485,3.831,4.326,3.314,6.155a1.168,1.168,0,0,1-1.614.473c-.538-.323-6.155-5.725-6.155-5.725l-1.011-6Z" transform="translate(-77.2 -158.35)" fill="#8a0a09"/>
          <g id="Group_34" data-name="Group 34" transform="translate(0 19.067)">
            <path id="Path_41" data-name="Path 41" d="M101.734,211.087a13.148,13.148,0,0,0-2.561-7.037,3.62,3.62,0,0,0,.775-.624h0a3.916,3.916,0,0,0,.753-2.841c-.043-2.862-1.42-5.488-2.927-7.855a40.509,40.509,0,0,0-7.339-8.285L78.556,174.2l-1.356.861h0l11.836,10.308A38,38,0,0,1,96.5,193.59c1.485,2.367,2.862,4.993,2.927,7.855.065,3.293-1.636,3.314-1.636,3.314s3.25,4.046,2.6,8.092a2.848,2.848,0,0,1-1.227,2.023c.28-.194,1.076-.71,1.313-.925a2.974,2.974,0,0,0,1.055-1.485,5.041,5.041,0,0,0,.194-1.377Z" transform="translate(-77.2 -174.2)" fill="#db021d"/>
            <path id="Path_42" data-name="Path 42" d="M178.9,363.322h0l.022-.022Z" transform="translate(-157.013 -322.604)" fill="#da020e"/>
          </g>
          <path id="Path_43" data-name="Path 43" d="M250.9,216.5l1.334,1.033,6.478-4.5L257.356,212Z" transform="translate(-213.518 -184.798)" fill="#e3001f"/>
        </g>
        <path id="Path_44" data-name="Path 44" d="M176.689,107.725h0a1.5,1.5,0,0,0-.194,1.679,1.2,1.2,0,0,1,.409-.452c.194-.108,11.428-7.231,11.428-7.231V100.3s-11.255,7.145-11.428,7.253A.675.675,0,0,0,176.689,107.725Z" transform="translate(-154.996 -97.136)" fill="#8a0a09"/>
      </g>
      <path id="Path_45" data-name="Path 45" d="M126.969,305.126a.079.079,0,0,1,.022-.065,2.292,2.292,0,0,1-.689-.344l-5.918-5.617-1.184.8s5.617,5.4,6.155,5.725A1.165,1.165,0,0,0,126.969,305.126Z" transform="translate(-110.161 -253.153)" fill="#e3001f"/>
    </g>
    <g id="Group_38" data-name="Group 38" transform="translate(141.655 142.953)">
      <path id="Path_46" data-name="Path 46" d="M376.7,355.966c0-2.389.624-3.766,2.862-3.766s2.862,1.356,2.862,3.766c0,2.5-.624,3.7-2.862,3.7S376.7,358.376,376.7,355.966Zm4.885,0c0-1.958-.387-3.034-2.023-3.034-1.657,0-2.023,1.076-2.023,3.034,0,1.98.366,2.991,2.023,2.991C381.241,358.936,381.585,357.989,381.585,355.966Z" transform="translate(-376.7 -352.178)"/>
      <path id="Path_47" data-name="Path 47" d="M411,357.5v2.432h-.8V352.7h2.647a2.023,2.023,0,0,1,2.3,2.324c0,1.571-.732,2.475-2.3,2.475Zm1.829-.71c1.055,0,1.506-.646,1.506-1.765s-.43-1.614-1.506-1.614H411v3.379Z" transform="translate(-402.991 -352.571)"/>
      <path id="Path_48" data-name="Path 48" d="M439,359.931V352.7h.8v6.521h3.185v.732H439Z" transform="translate(-425.593 -352.571)"/>
      <path id="Path_49" data-name="Path 49" d="M462.2,352.7h4.412v.71h-3.594v2.5h2.97v.71h-2.97v2.6h3.594v.71H462.2Z" transform="translate(-443.8 -352.571)"/>
      <path id="Path_50" data-name="Path 50" d="M489.1,352.7h.8v7.231h-.8Z" transform="translate(-464.911 -352.571)"/>
      <path id="Path_51" data-name="Path 51" d="M501.1,359.931V352.7h2.582c2.109,0,2.669,1.463,2.669,3.508,0,2.066-.538,3.723-2.669,3.723Zm2.582-6.521H501.9v5.811h1.786c1.506,0,1.851-1.442,1.851-3.013S505.189,353.41,503.682,353.41Z" transform="translate(-474.328 -352.571)"/>
      <path id="Path_52" data-name="Path 52" d="M532.4,352.7h.8v7.231h-.8Z" transform="translate(-498.892 -352.571)"/>
      <path id="Path_53" data-name="Path 53" d="M544.4,352.7h1.506l2.776,6.521h.215V352.7h.8v7.231h-1.485l-2.8-6.521h-.194v6.521h-.8V352.7Z" transform="translate(-508.31 -352.571)"/>
      <path id="Path_54" data-name="Path 54" d="M579.142,355.837h2v3.551a16.9,16.9,0,0,1-2.346.258c-2.217,0-2.8-1.356-2.8-3.7,0-2.41.6-3.745,2.776-3.745a13.007,13.007,0,0,1,2.367.28l-.022.667a16.828,16.828,0,0,0-2.26-.215c-1.679,0-2.044.968-2.044,3.013,0,2,.366,2.991,2.023,2.991a8.608,8.608,0,0,0,1.506-.151v-2.238h-1.205v-.71Z" transform="translate(-533.109 -352.178)"/>
      <path id="Path_55" data-name="Path 55" d="M607.2,352.7h4.412v.71h-3.594v2.5h2.97v.71h-2.97v2.6h3.594v.71H607.2Z" transform="translate(-557.595 -352.571)"/>
      <path id="Path_56" data-name="Path 56" d="M634.1,352.7h1.506l2.776,6.521h.215V352.7h.8v7.231h-1.485l-2.8-6.521h-.194v6.521h-.8V352.7Z" transform="translate(-578.706 -352.571)"/>
      <path id="Path_57" data-name="Path 57" d="M680.17,353.714c0,.99-.473,1.463-1.614,1.98l1.593,1.571a10.581,10.581,0,0,0,.3-1.7h.753a9.331,9.331,0,0,1-.474,2.174l1.356,1.27-.474.517-1.27-1.184a2.448,2.448,0,0,1-2.26,1.184c-1.958,0-2.582-.839-2.582-2.238a1.921,1.921,0,0,1,1.614-2.109,1.992,1.992,0,0,1-.6-1.55c0-.925.667-1.528,1.829-1.528C679.589,352.143,680.17,352.746,680.17,353.714Zm-.387,4.2-2.217-2.2c-.9.28-1.27.689-1.27,1.571,0,1.033.473,1.571,1.722,1.571A1.8,1.8,0,0,0,679.783,357.911Zm-2-2.97.3.3c.925-.387,1.291-.71,1.291-1.463,0-.624-.3-.968-1.033-.968a.9.9,0,0,0-1.033.99A1.649,1.649,0,0,0,677.781,354.941Z" transform="translate(-611.196 -352.1)"/>
      <path id="Path_58" data-name="Path 58" d="M718.221,352.7h5.23v.732h-2.217v6.521h-.8V353.41H718.2v-.71Z" transform="translate(-644.706 -352.571)"/>
      <path id="Path_59" data-name="Path 59" d="M748.2,357.255v2.776h-.8V352.8h2.669c1.506,0,2.3.667,2.3,2.2a1.957,1.957,0,0,1-1.334,2.109l1.4,2.948h-.882l-1.313-2.776H748.2Zm1.872-3.766H748.2v3.034h1.894c1.1,0,1.485-.646,1.485-1.549A1.328,1.328,0,0,0,750.069,353.489Z" transform="translate(-667.622 -352.649)"/>
      <path id="Path_60" data-name="Path 60" d="M775.98,352.7h1.765l1.98,7.231h-.8l-.516-1.872h-3.1l-.517,1.872H774Zm-.495,4.648h2.733l-1.1-3.96h-.538Z" transform="translate(-688.498 -352.571)"/>
      <path id="Path_61" data-name="Path 61" d="M805.9,352.7h.8v7.231h-.8Z" transform="translate(-713.533 -352.571)"/>
      <path id="Path_62" data-name="Path 62" d="M817.9,352.7h1.506l2.776,6.521h.215V352.7h.8v7.231h-1.485l-2.819-6.521H818.7v6.521h-.8V352.7Z" transform="translate(-722.95 -352.571)"/>
      <path id="Path_63" data-name="Path 63" d="M850.7,352.7h.8v7.231h-.8Z" transform="translate(-748.691 -352.571)"/>
      <path id="Path_64" data-name="Path 64" d="M862.7,352.7h1.506l2.776,6.521h.215V352.7h.8v7.231h-1.485l-2.8-6.521h-.194v6.521h-.8V352.7Z" transform="translate(-758.109 -352.571)"/>
      <path id="Path_65" data-name="Path 65" d="M897.442,355.837h2v3.551a16.9,16.9,0,0,1-2.346.258c-2.217,0-2.8-1.356-2.8-3.7,0-2.41.6-3.745,2.776-3.745a13.007,13.007,0,0,1,2.367.28l-.022.667a16.829,16.829,0,0,0-2.26-.215c-1.679,0-2.044.968-2.044,3.013,0,2,.366,2.991,2.023,2.991a8.608,8.608,0,0,0,1.506-.151v-2.238h-1.205Z" transform="translate(-782.908 -352.178)"/>
      <path id="Path_66" data-name="Path 66" d="M925.5,352.7h4.412v.71h-3.594v2.5h2.948v.71H926.3v2.6h3.615v.71H925.5Z" transform="translate(-807.394 -352.571)"/>
      <path id="Path_67" data-name="Path 67" d="M952.4,352.7h1.506l2.776,6.521h.215V352.7h.8v7.231h-1.485l-2.819-6.521H953.2v6.521h-.8Z" transform="translate(-828.505 -352.571)"/>
    </g>
  </g>
</svg>
