<svg xmlns="http://www.w3.org/2000/svg" width="201.053" height="47.58" viewBox="0 0 201.053 47.58">
  <g id="_2dde905a2bf4793361d4d7dc4cdf3db3" data-name="2dde905a2bf4793361d4d7dc4cdf3db3" transform="translate(0 0.909)">
    <path id="Path_80" data-name="Path 80" d="M297.674,78.065a3.483,3.483,0,0,0-1.455-.282,2.2,2.2,0,0,0-1.283.37,3.12,3.12,0,0,0-.9.944,4.3,4.3,0,0,0-.529,1.283,5.725,5.725,0,0,0-.169,1.36,2.69,2.69,0,0,0,.074.642,1.263,1.263,0,0,0,.275.529,1.383,1.383,0,0,0,.513.359,2.053,2.053,0,0,0,.8.133,4.288,4.288,0,0,0,1.758-.359l-.208,2.1a7.033,7.033,0,0,1-1.065.275,6.671,6.671,0,0,1-1.18.1,5.025,5.025,0,0,1-1.609-.226,2.716,2.716,0,0,1-1.083-.652,2.512,2.512,0,0,1-.608-1.027,4.457,4.457,0,0,1-.19-1.34,8.079,8.079,0,0,1,.39-2.53,6.416,6.416,0,0,1,1.111-2.076,5.254,5.254,0,0,1,1.745-1.4,5.084,5.084,0,0,1,2.31-.513,6.893,6.893,0,0,1,.973.064,7.847,7.847,0,0,1,.9.18Z" transform="translate(-216.955 -57.656)" fill="red"/>
    <path id="Path_81" data-name="Path 81" d="M329.854,79.124a6.944,6.944,0,0,1-.472,2.625,6.311,6.311,0,0,1-1.255,2,5.412,5.412,0,0,1-1.812,1.283,5.31,5.31,0,0,1-2.125.444,3.8,3.8,0,0,1-2.823-.888,3.371,3.371,0,0,1-.849-2.471,7.2,7.2,0,0,1,.462-2.654,6.383,6.383,0,0,1,1.237-2.022,5.289,5.289,0,0,1,1.8-1.283,5.346,5.346,0,0,1,2.153-.444,4.976,4.976,0,0,1,1.7.257,3.013,3.013,0,0,1,1.142.708,2.671,2.671,0,0,1,.642,1.086,4.57,4.57,0,0,1,.205,1.358m-2.492.316a1.868,1.868,0,0,0-.357-1.234,1.484,1.484,0,0,0-1.191-.423,2.027,2.027,0,0,0-1.181.357,3.256,3.256,0,0,0-.888.924,4.349,4.349,0,0,0-.557,1.27,5.411,5.411,0,0,0-.19,1.4,1.948,1.948,0,0,0,.341,1.214,1.388,1.388,0,0,0,1.17.441,2.194,2.194,0,0,0,1.152-.318,2.987,2.987,0,0,0,.906-.867,4.314,4.314,0,0,0,.585-1.26,5.365,5.365,0,0,0,.208-1.506" transform="translate(-239.031 -57.624)" fill="red"/>
    <path id="Path_82" data-name="Path 82" d="M375.627,85.208h-2.361l1.114-5.877a2.656,2.656,0,0,0,.038-1.252.541.541,0,0,0-.565-.385,1.47,1.47,0,0,0-.926.452,5.881,5.881,0,0,0-.991,1.186,10.323,10.323,0,0,0-.87,1.658,8.983,8.983,0,0,0-.557,1.845l-.454,2.374h-2.361l1.134-5.877a2.676,2.676,0,0,0,.036-1.252.542.542,0,0,0-.567-.385,1.463,1.463,0,0,0-.924.462,6.142,6.142,0,0,0-.991,1.2,10.322,10.322,0,0,0-.87,1.648,8.727,8.727,0,0,0-.557,1.838l-.452,2.369h-2.361l1.417-7.458.018-.056c-.216-.038-.462-.072-.747-.1L362,77.509,362.285,76c.6-.074,1.252-.131,1.945-.159s1.352-.036,1.981,0a12.6,12.6,0,0,1-.359,1.45q-.226.734-.49,1.458l.038.018a9.95,9.95,0,0,1,.726-1.2,5.721,5.721,0,0,1,.888-1,4.087,4.087,0,0,1,1.057-.68,3.015,3.015,0,0,1,1.237-.257,1.976,1.976,0,0,1,1.368.462,1.737,1.737,0,0,1,.513,1.37,3.042,3.042,0,0,1-.056.585,6.556,6.556,0,0,1-.208.77h.021a10.035,10.035,0,0,1,.726-1.229,5.645,5.645,0,0,1,.9-1.027,4.119,4.119,0,0,1,1.068-.69,3.02,3.02,0,0,1,1.237-.257,2.459,2.459,0,0,1,1.124.226,1.591,1.591,0,0,1,.68.642,2.374,2.374,0,0,1,.282.991,4.573,4.573,0,0,1-.085,1.255Z" transform="translate(-269.868 -57.549)" fill="red"/>
    <path id="Path_83" data-name="Path 83" d="M434.265,78.523a9.086,9.086,0,0,1-.359,2.566,6.416,6.416,0,0,1-1.1,2.181,5.428,5.428,0,0,1-1.879,1.519,5.928,5.928,0,0,1-2.682.567q-.257,0-.513-.018c-.157-.013-.331-.033-.513-.059l-.849,4.458H424l2.31-12.049V77.65c-.213-.038-.462-.074-.744-.1s-.565-.059-.839-.085L425,75.956c.6-.074,1.252-.131,1.945-.159s1.352-.036,1.984,0c-.074.367-.177.77-.3,1.209s-.311,1.027-.547,1.758l.026.015a8.153,8.153,0,0,1,.77-1.283,5.856,5.856,0,0,1,.924-1,4.106,4.106,0,0,1,1.057-.66,2.977,2.977,0,0,1,1.181-.236,1.984,1.984,0,0,1,1.642.708,3.453,3.453,0,0,1,.585,2.215m-2.435.454a2.071,2.071,0,0,0-.18-1,.57.57,0,0,0-.513-.3,1.56,1.56,0,0,0-1.05.513,6.32,6.32,0,0,0-1.011,1.283,11.219,11.219,0,0,0-.844,1.619,9.076,9.076,0,0,0-.513,1.607l-.113.6a3.893,3.893,0,0,0,.513.123,3.174,3.174,0,0,0,.539.046,2.361,2.361,0,0,0,1.406-.423,3.488,3.488,0,0,0,.983-1.086,5.253,5.253,0,0,0,.577-1.455,6.579,6.579,0,0,0,.19-1.54" transform="translate(-315.957 -57.536)" fill="red"/>
    <path id="Path_84" data-name="Path 84" d="M469.37,76.469c.616-.074,1.283-.131,1.984-.159s1.378-.036,2.02,0l-1.114,5.9a2.537,2.537,0,0,0-.028,1.247.57.57,0,0,0,.6.377,1.54,1.54,0,0,0,1-.49,6.021,6.021,0,0,0,1-1.258,11.2,11.2,0,0,0,.839-1.663,8.469,8.469,0,0,0,.513-1.727l.454-2.379h2.358l-1.435,7.535q.321.056.744.105l.821.085-.285,1.512q-.908.113-1.927.159t-1.963,0q.074-.434.257-1.124t.577-1.8l-.039-.018a10.051,10.051,0,0,1-.729,1.2,5.248,5.248,0,0,1-.906,1,4.429,4.429,0,0,1-1.075.68,3.01,3.01,0,0,1-1.237.257,1.87,1.87,0,0,1-1.822-.867,3.379,3.379,0,0,1-.2-2.248l.888-4.589v-.038q-.323-.056-.747-.1c-.282-.031-.565-.059-.839-.085Z" transform="translate(-349.468 -58.049)" fill="red"/>
    <path id="Path_85" data-name="Path 85" d="M519.875,68.529h-2.21l-.793,4.217a2.059,2.059,0,0,0,0,1.139c.095.2.336.293.726.293a4.582,4.582,0,0,0,.634-.038c.18-.026.362-.056.539-.095l-.226,1.925a9.392,9.392,0,0,1-.983.18,7.4,7.4,0,0,1-.944.064q-1.54,0-2-.752a3.618,3.618,0,0,1-.151-2.448l.852-4.483H513.7l.377-1.889h1.589l.547-2.89,2.456-.49-.642,3.38h2.228Z" transform="translate(-382.637 -48.366)" fill="red"/>
    <path id="Path_86" data-name="Path 86" d="M548.213,77.952a1.353,1.353,0,0,0-1.209.123,3.594,3.594,0,0,0-1.1,1.1,8.939,8.939,0,0,0-.906,1.8,11.944,11.944,0,0,0-.606,2.161l-.377,2.027h-2.361l1.437-7.5v-.038c-.213-.038-.462-.072-.744-.1s-.565-.059-.842-.085l.282-1.512c.606-.077,1.25-.131,1.938-.159s1.337-.036,1.956,0a11.964,11.964,0,0,1-.285,1.219q-.187.67-.513,1.632h.038a15.217,15.217,0,0,1,.77-1.37,4.8,4.8,0,0,1,.839-1.027,2.685,2.685,0,0,1,.991-.575,2.4,2.4,0,0,1,1.2-.038Z" transform="translate(-403.309 -57.504)" fill="red"/>
    <path id="Path_87" data-name="Path 87" d="M576.777,83.484q.323.056.747.1l.821.085-.282,1.512c-.606.077-1.245.131-1.925.162s-1.335.033-1.963,0q.113-.567.321-1.283t.529-1.709h-.038c-.187.341-.413.7-.67,1.075a6.546,6.546,0,0,1-.878,1.027,4.482,4.482,0,0,1-1.086.77,2.823,2.823,0,0,1-1.283.3,1.979,1.979,0,0,1-1.642-.708,3.532,3.532,0,0,1-.567-2.217,9.149,9.149,0,0,1,.359-2.566,6.4,6.4,0,0,1,1.106-2.192,5.436,5.436,0,0,1,1.863-1.491,5.934,5.934,0,0,1,2.682-.567q.851,0,1.689.067a15.111,15.111,0,0,1,1.635.216ZM575.514,77.8q-.228-.056-.482-.095a3.986,3.986,0,0,0-.577-.038,2.351,2.351,0,0,0-1.406.426,3.557,3.557,0,0,0-.991,1.083,5.081,5.081,0,0,0-.6,1.458,6.586,6.586,0,0,0-.19,1.54,2.052,2.052,0,0,0,.18,1,.585.585,0,0,0,.539.3,1.56,1.56,0,0,0,1.05-.513,6.312,6.312,0,0,0,1.009-1.283,10.892,10.892,0,0,0,.831-1.653,9.472,9.472,0,0,0,.513-1.624Z" transform="translate(-423.64 -57.675)" fill="red"/>
    <path id="Path_88" data-name="Path 88" d="M614.93,73.8h-2.369L614,66.3v-.038c-.216-.038-.462-.072-.747-.1s-.565-.059-.839-.085l.282-1.512c.606-.074,1.255-.131,1.956-.162s1.388-.033,2.069,0Zm2.6-12.2a1.5,1.5,0,0,1-.48,1.163,1.581,1.581,0,0,1-1.106.444,1.319,1.319,0,0,1-1.011-.416,1.347,1.347,0,0,1-.388-.944,1.458,1.458,0,0,1,.482-1.137,1.581,1.581,0,0,1,1.1-.444,1.332,1.332,0,0,1,1.011.408,1.283,1.283,0,0,1,.388.916" transform="translate(-456.014 -46.141)" fill="red"/>
    <path id="Path_89" data-name="Path 89" d="M642.208,85.194h-2.361l1.134-5.9a2.621,2.621,0,0,0,0-1.247.557.557,0,0,0-.575-.377,1.522,1.522,0,0,0-1,.49,6.18,6.18,0,0,0-.991,1.268,10.68,10.68,0,0,0-.862,1.663,8.924,8.924,0,0,0-.513,1.719l-.459,2.387h-2.361l1.435-7.5v-.038c-.213-.038-.462-.072-.744-.1s-.565-.059-.839-.085l.285-1.517q.906-.113,1.943-.162t1.984,0q-.095.434-.275,1.124t-.575,1.8l.039.018a10.121,10.121,0,0,1,.726-1.2,5.371,5.371,0,0,1,.906-1,4.426,4.426,0,0,1,1.075-.68,3.023,3.023,0,0,1,1.237-.257,2.518,2.518,0,0,1,1.132.226,1.642,1.642,0,0,1,.7.642,2.214,2.214,0,0,1,.282.991,4.877,4.877,0,0,1-.095,1.255Z" transform="translate(-472.115 -57.535)" fill="red"/>
    <path id="Path_90" data-name="Path 90" d="M37.664,95.616l-20.22,1.027-.092.472h9.5a23.61,23.61,0,0,0,45.263,3.542l7.884.133.236-1.24H34.8l-.09.475,33.17.559a19.684,19.684,0,0,1-37.009-3.47H55.389s2.728-.172,1.3-1.719c-1.3-1.409-3.593-3.765-9.819-3.765-.4,0-1.753.09-3.755.241L3.08,95.405,3,95.882l33.414-1.1s1.6-.082,1.555.593c0,0,0,.221-.305.239" transform="translate(-3 -69.455)" fill="red"/>
    <path id="Path_91" data-name="Path 91" d="M48.623,62.3c10.473-1.317,13.65,3.724,15.085,5.646,2.053,2.759.806,3.354.806,3.354,3.08,0,6.673.339,2.931-7.773a10.563,10.563,0,0,0-12.111-6.383L8.08,66.939,8,67.413Z" transform="translate(-6.717 -43.642)" fill="red"/>
    <path id="Path_92" data-name="Path 92" d="M120.465,5.84a19.7,19.7,0,0,1,19.117,24.409h4.027A23.61,23.61,0,0,0,97.82,18.816l4.619-1.2A19.689,19.689,0,0,1,120.471,5.84" transform="translate(-73.486 -2.59)" fill="red"/>
    <path id="Path_93" data-name="Path 93" d="M427.046,157.764h-1.5l-1.617-9.919h1.411l.97,6.377c.09.588.19,1.411.236,2.053h.031c.293-.706.69-1.455,1.073-2.161l3.423-6.275H432.5Z" transform="translate(-315.905 -111.24)" fill="red"/>
    <path id="Path_94" data-name="Path 94" d="M455.454,165.078c-1.838,0-2.674-.926-2.674-2.6,0-2.91,1.85-4.966,4.232-4.966a2.4,2.4,0,0,1,2.718,2.631C459.732,163.159,457.659,165.078,455.454,165.078Zm1.352-6.452c-1.6,0-2.674,1.8-2.674,3.629,0,1.088.441,1.689,1.54,1.689,1.424,0,2.674-1.54,2.674-3.66,0-1.065-.48-1.65-1.54-1.65Z" transform="translate(-337.351 -118.428)" fill="red"/>
    <path id="Path_95" data-name="Path 95" d="M487.054,165.078c-1.837,0-2.674-.926-2.674-2.6,0-2.91,1.85-4.966,4.232-4.966a2.4,2.4,0,0,1,2.718,2.631C491.332,163.159,489.259,165.078,487.054,165.078Zm1.352-6.452c-1.6,0-2.674,1.8-2.674,3.629,0,1.088.441,1.689,1.54,1.689,1.424,0,2.674-1.54,2.674-3.66,0-1.065-.482-1.65-1.54-1.65Z" transform="translate(-360.841 -118.428)" fill="red"/>
    <path id="Path_96" data-name="Path 96" d="M522.272,158.747c-1.483-.544-2.91,2.5-3.277,4.483l-.308,1.645h-1.306l1.2-6.262a12.042,12.042,0,0,0-1.234-.146l.146-.793a16.332,16.332,0,0,1,2.566-.1,19.21,19.21,0,0,1-.77,2.69l.031.015c.837-1.778,1.676-3.144,3.234-2.823Z" transform="translate(-385.35 -118.352)" fill="red"/>
    <path id="Path_97" data-name="Path 97" d="M546.412,164.276a12.235,12.235,0,0,0,1.219.146l-.146.793a16.045,16.045,0,0,1-2.543.1,22.6,22.6,0,0,1,.808-2.879h-.031c-.69,1.54-1.85,3.028-3.38,3.028-1.352,0-1.8-.955-1.514-2.484l.749-3.924a12.044,12.044,0,0,0-1.234-.146l.146-.793a16.6,16.6,0,0,1,2.566-.1l-.9,4.673c-.205,1.147,0,1.648.647,1.648,1.352,0,2.867-2.867,3.187-4.673l.308-1.648h1.309Z" transform="translate(-402.44 -118.796)" fill="red"/>
    <path id="Path_98" data-name="Path 98" d="M577.209,156.188h-1.3l1.2-6.262a12.044,12.044,0,0,0-1.234-.146l.146-.793a16.49,16.49,0,0,1,2.587-.1Zm1.073-8.759a.79.79,0,0,1-.808-.77.937.937,0,0,1,.939-.939.788.788,0,0,1,.793.77.926.926,0,0,1-.924.939Z" transform="translate(-428.859 -109.664)" fill="red"/>
    <path id="Path_99" data-name="Path 99" d="M596.063,151.333h-1.984l-.721,3.821c-.221,1.132-.059,1.44.662,1.44a4.006,4.006,0,0,0,1.027-.118l-.087,1.1a7.184,7.184,0,0,1-1.368.146c-1.5,0-1.881-.706-1.573-2.366l.77-4.027H591.3l.205-1.027h1.471l.454-2.366,1.365-.308-.513,2.674h1.984Z" transform="translate(-440.322 -111.084)" fill="red"/>
    <path id="Path_100" data-name="Path 100" d="M637.724,164.923h-1.283l.9-4.673c.221-1.147.015-1.66-.6-1.66-1.16,0-2.733,2.484-3.144,4.689l-.308,1.645H632l.9-4.673c.221-1.147.015-1.66-.6-1.66-1.16,0-2.749,2.484-3.159,4.689l-.3,1.645h-1.306l1.2-6.262a12.041,12.041,0,0,0-1.234-.146l.146-.793a16.334,16.334,0,0,1,2.566-.1,24.155,24.155,0,0,1-.808,2.879h.031c.675-1.54,1.822-3.028,3.321-3.028a1.313,1.313,0,0,1,1.471,1.424,5.276,5.276,0,0,1-.354,1.617l.015.015c.675-1.573,1.838-3.057,3.336-3.057,1.306,0,1.778.955,1.483,2.484Z" transform="translate(-467.231 -118.398)" fill="red"/>
    <path id="Path_101" data-name="Path 101" d="M679.011,161.779a4.887,4.887,0,0,0-.074.852c0,1.132.4,1.424,1.573,1.424a5.361,5.361,0,0,0,2.053-.426l.044,1.045a6.826,6.826,0,0,1-2.543.454c-1.676,0-2.453-.721-2.453-2.366,0-2.836,1.589-5.2,4-5.2,1.558,0,2.145.793,2.145,1.66C683.741,160.873,681.95,161.669,679.011,161.779Zm2.441-3.218c-1.163,0-1.94,1.027-2.279,2.248,2.263-.09,3.262-.544,3.262-1.424,0-.539-.4-.831-.985-.831Z" transform="translate(-504.482 -118.465)" fill="red"/>
    <path id="Path_102" data-name="Path 102" d="M710.388,151.333H708.4l-.721,3.821c-.221,1.132-.059,1.44.662,1.44a4.006,4.006,0,0,0,1.026-.118l-.087,1.1a7.186,7.186,0,0,1-1.368.146c-1.5,0-1.881-.706-1.573-2.366l.77-4.027H705.63l.205-1.027h1.47l.454-2.366,1.365-.308-.513,2.674H710.6Z" transform="translate(-525.311 -111.084)" fill="red"/>
    <path id="Path_103" data-name="Path 103" d="M741.8,157.779H740.48l1.881-9.919h1.332Z" transform="translate(-551.217 -111.255)" fill="red"/>
    <path id="Path_104" data-name="Path 104" d="M765.541,148.992h-2.792l-1.691,8.787h-1.314l1.691-8.787H758.62l.205-1.132h6.929Z" transform="translate(-564.701 -111.255)" fill="red"/>
  </g>
</svg>
