<svg xmlns="http://www.w3.org/2000/svg" width="40" height="40" viewBox="0 0 40 40">
  <g id="future_2_" data-name="future (2)" transform="translate(-0.002 0)">
    <g id="Group_15" data-name="Group 15" transform="translate(0.002 0)">
      <g id="Group_14" data-name="Group 14" transform="translate(0 0)">
        <path id="Path_1" data-name="Path 1" d="M38.83,18.828A1.172,1.172,0,0,0,37.658,20,17.649,17.649,0,1,1,28.436,4.486L26.971,5.951a1.172,1.172,0,0,0,.829,2h5.607a1.172,1.172,0,0,0,1.172-1.172V1.172a1.172,1.172,0,0,0-2-.829L30.155,2.767A20,20,0,0,0,5.86,34.142,20,20,0,0,0,40,20,1.172,1.172,0,0,0,38.83,18.828Z" transform="translate(-0.002 0)" fill="#666"/>
      </g>
    </g>
    <g id="Group_17" data-name="Group 17" transform="translate(18.669 11.2)">
      <g id="Group_16" data-name="Group 16">
        <path id="Path_2" data-name="Path 2" d="M249.934,152.33h-6.526V145.8a1.2,1.2,0,1,0-2.405,0v7.729a1.2,1.2,0,0,0,1.2,1.2h7.728a1.2,1.2,0,0,0,0-2.405Z" transform="translate(-241.003 -144.601)" fill="#666"/>
      </g>
    </g>
  </g>
</svg>
