<svg xmlns="http://www.w3.org/2000/svg" width="40" height="30" viewBox="0 0 40 30">
  <g id="graduation-cap" transform="translate(0 -41.75)">
    <g id="Group_28" data-name="Group 28" transform="translate(0 41.75)">
      <path id="Path_13" data-name="Path 13" d="M38.671,49.936,22.726,42.258a6.618,6.618,0,0,0-5.086,0L1.329,49.936A1.938,1.938,0,0,0,0,51.652c0,.406.183,1.129,1.329,1.716L2.658,54v7.226a2.214,2.214,0,0,0-1.42,2.032,2.242,2.242,0,0,0,1.375,2.032L.55,71.75H6.323L4.261,65.292a2.177,2.177,0,0,0-.046-4.065V54.768l2.428,1.174v9.394a.721.721,0,0,0,.137.406,16.71,16.71,0,0,0,13.2,6.007,16.614,16.614,0,0,0,13.15-6.007.721.721,0,0,0,.137-.406V55.988l5.407-2.619A1.938,1.938,0,0,0,40,51.652,2.02,2.02,0,0,0,38.671,49.936ZM31.8,65.111A15.4,15.4,0,0,1,19.977,70.35,15.4,15.4,0,0,1,8.156,65.111V56.575l9.485,4.471a6.256,6.256,0,0,0,2.52.5A5.647,5.647,0,0,0,22.726,61L31.8,56.62ZM38.03,52.1l-5.5,2.665a.528.528,0,0,0-.5.271l-9.943,4.742a5.155,5.155,0,0,1-3.849,0L6,54l14.066-1.626a.7.7,0,1,0-.137-1.4L3.62,52.872,1.97,52.1a.919.919,0,0,1-.5-.406c0-.045.092-.226.5-.406l16.312-7.723a4.793,4.793,0,0,1,1.879-.361,4.7,4.7,0,0,1,1.924.361L38.03,51.246c.412.181.5.361.5.452A1.254,1.254,0,0,1,38.03,52.1Z" transform="translate(0 -41.75)" fill="#666"/>
    </g>
  </g>
</svg>
