<svg xmlns="http://www.w3.org/2000/svg" width="50" height="50" viewBox="0 0 50 50">
  <g id="Group_94" data-name="Group 94" transform="translate(-815 -5837)">
    <g id="Ellipse_583" data-name="Ellipse 583" transform="translate(815 5837)" fill="#1a1a1a" stroke="#303030" stroke-width="1">
      <circle cx="25" cy="25" r="25" stroke="none"/>
      <circle cx="25" cy="25" r="24.5" fill="none"/>
    </g>
    <path id="twitter" d="M20,50.013a8.256,8.256,0,0,1-2.362.677,4.237,4.237,0,0,0,1.8-2.371,7.978,7.978,0,0,1-2.6,1.038,4.027,4.027,0,0,0-3-1.357,4.2,4.2,0,0,0-4.1,4.291,4.613,4.613,0,0,0,.1.978,11.445,11.445,0,0,1-8.451-4.487A4.472,4.472,0,0,0,.831,50.95a4.351,4.351,0,0,0,1.821,3.565A3.913,3.913,0,0,1,.8,53.987v.047a4.266,4.266,0,0,0,3.285,4.215,3.922,3.922,0,0,1-1.075.141,3.47,3.47,0,0,1-.776-.073A4.168,4.168,0,0,0,6.065,61.3,8.011,8.011,0,0,1,.981,63.134,7.345,7.345,0,0,1,0,63.075,11.177,11.177,0,0,0,6.29,65c7.545,0,11.67-6.538,11.67-12.206,0-.19-.006-.373-.015-.554A8.4,8.4,0,0,0,20,50.013Z" transform="translate(830 5806)" fill="#fff"/>
  </g>
</svg>
