<svg xmlns="http://www.w3.org/2000/svg" width="40" height="40" viewBox="0 0 40 40">
  <g id="Group_59" data-name="Group 59" transform="translate(-830 -3236)">
    <circle id="Ellipse_2" data-name="Ellipse 2" cx="20" cy="20" r="20" transform="translate(830 3236)" fill="#fff"/>
    <g id="Group_58" data-name="Group 58" transform="translate(0.101 -0.123)">
      <path id="Union_1" data-name="Union 1" d="M14.21,29.2V27.746a.792.792,0,1,1,1.583,0V29.2a.792.792,0,1,1-1.583,0Zm6.846-3.616-5.872-3.133a.39.39,0,0,0-.368,0L8.945,25.581a1.944,1.944,0,0,1-2.084-.153,2.009,2.009,0,0,1-.788-1.964L7.2,16.827a.405.405,0,0,0-.114-.356l-4.75-4.7a2.015,2.015,0,0,1-.5-2.058,1.974,1.974,0,0,1,1.6-1.367l6.563-.968a.4.4,0,0,0,.3-.22L13.226,1.12a1.965,1.965,0,0,1,3.548,0L19.71,7.157a.4.4,0,0,0,.3.221l6.564.968a1.973,1.973,0,0,1,1.6,1.367,2.014,2.014,0,0,1-.5,2.058l-4.75,4.7a.4.4,0,0,0-.114.355l1.121,6.637a2.011,2.011,0,0,1-.787,1.964,1.952,1.952,0,0,1-1.161.386h-.005A1.943,1.943,0,0,1,21.055,25.581Zm-5.135-4.555,5.872,3.133a.381.381,0,0,0,.417-.031.393.393,0,0,0,.157-.393L21.245,17.1a2.027,2.027,0,0,1,.569-1.778l4.751-4.7a.4.4,0,0,0,.1-.412.388.388,0,0,0-.32-.273L19.78,8.968a1.979,1.979,0,0,1-1.489-1.1L15.355,1.83a.393.393,0,0,0-.71,0L11.71,7.869a1.984,1.984,0,0,1-1.49,1.1l-6.564.968a.388.388,0,0,0-.319.273.4.4,0,0,0,.1.412l4.75,4.7A2.027,2.027,0,0,1,8.755,17.1L7.634,23.735a.394.394,0,0,0,.157.393.381.381,0,0,0,.417.031l5.871-3.133a1.954,1.954,0,0,1,1.842,0Zm13.043-1.539L27.6,19.037a.8.8,0,0,1-.508-1.012.788.788,0,0,1,1-.515l1.359.448a.806.806,0,0,1,.509,1.012.788.788,0,0,1-1,.516ZM.039,18.968a.8.8,0,0,1,.508-1.012l1.359-.448a.789.789,0,0,1,1,.515A.806.806,0,0,1,2.4,19.035l-1.36.448a.769.769,0,0,1-.245.04A.792.792,0,0,1,.039,18.968ZM22.475,3.593A.812.812,0,0,1,22.3,2.47L23.14,1.3a.783.783,0,0,1,1.1-.178.811.811,0,0,1,.175,1.123l-.84,1.173a.783.783,0,0,1-1.1.178ZM6.417,3.41l-.84-1.173a.812.812,0,0,1,.175-1.123.783.783,0,0,1,1.1.178L7.7,2.466a.811.811,0,0,1-.175,1.123.783.783,0,0,1-1.1-.178Z" transform="translate(834.899 3241.123)" fill="#d94645"/>
    </g>
  </g>
</svg>
