<svg xmlns="http://www.w3.org/2000/svg" width="40" height="40" viewBox="0 0 40 40">
  <g id="Group_61" data-name="Group 61" transform="translate(-1170 -3236)">
    <circle id="Ellipse_2" data-name="Ellipse 2" cx="20" cy="20" r="20" transform="translate(1170 3236)" fill="#fff"/>
    <g id="book" transform="translate(1175 3187.697)">
      <g id="Group_60" data-name="Group 60" transform="translate(0 58.303)">
        <path id="Path_114" data-name="Path 114" d="M29.418,59.968H27.441v-.627a.546.546,0,0,0-.419-.54,17.561,17.561,0,0,0-4.193-.5,11.317,11.317,0,0,0-7.839,2.7c-2.326-2.237-5.519-2.7-7.839-2.7a17.561,17.561,0,0,0-4.193.5.546.546,0,0,0-.419.54v.621H.582A.562.562,0,0,0,0,60.5V77.761a.562.562,0,0,0,.582.54.616.616,0,0,0,.285-.07A21.9,21.9,0,0,1,14.858,77.15H15a.628.628,0,0,0,.14,0c8.141-1.918,13.956,1.032,13.991,1.081a.62.62,0,0,0,.582,0A.535.535,0,0,0,30,77.766V60.508A.562.562,0,0,0,29.418,59.968ZM1.163,76.9V61.048h1.39V74.6a.561.561,0,0,0,.575.546.621.621,0,0,0,.094-.006,27.347,27.347,0,0,1,3.634-.27,16.144,16.144,0,0,1,4.966.7A22.874,22.874,0,0,0,1.163,76.9Zm5.693-3.107a27.506,27.506,0,0,0-3.163.189V59.768a17.211,17.211,0,0,1,3.448-.357c2.175,0,5.175.465,7.257,2.648l.017,13.46A14.388,14.388,0,0,0,6.856,73.795Zm8.723-11.736a10,10,0,0,1,7.257-2.648,17.286,17.286,0,0,1,3.448.357V73.984a27.5,27.5,0,0,0-3.146-.195,14.51,14.51,0,0,0-7.56,1.724ZM28.831,76.9a22.878,22.878,0,0,0-10.682-1.335,16.183,16.183,0,0,1,4.989-.7,27.341,27.341,0,0,1,3.658.265.577.577,0,0,0,.662-.453.5.5,0,0,0,.007-.087V61.048h1.39Z" transform="translate(0 -58.303)" fill="#d94645"/>
      </g>
    </g>
  </g>
</svg>
