<svg id="Group_39" data-name="Group 39" xmlns="http://www.w3.org/2000/svg" width="200.625" height="39.349" viewBox="0 0 200.625 39.349">
  <path id="Path_68" data-name="Path 68" d="M12.685,16.9a6.174,6.174,0,0,0-4.434-1.6c-2.094,0-3.264.677-3.264,1.786,0,1.17,1.047,1.847,3.325,1.971,3.387.246,7.7.985,7.7,5.727,0,3.141-2.586,5.912-7.7,5.912A10.639,10.639,0,0,1,0,27.487l2.155-3.141a9.041,9.041,0,0,0,6.158,2.525c1.663.062,3.264-.677,3.264-1.971,0-1.232-1.047-1.909-3.572-2.094C4.68,22.561.616,21.33.616,17.2s4.311-5.6,7.574-5.6a9.585,9.585,0,0,1,6.958,2.34Z" transform="translate(0 -4.457)" fill="#da291c"/>
  <path id="Path_69" data-name="Path 69" d="M44.342,27.834a9.251,9.251,0,0,1-6.9,2.833c-5.234,0-9.545-3.141-9.545-9.483S32.211,11.7,37.445,11.7a8.6,8.6,0,0,1,6.466,2.648L41.078,17.3a5.511,5.511,0,0,0-3.633-1.416,5.046,5.046,0,0,0-5.173,5.3,4.878,4.878,0,0,0,5.111,5.234,5.367,5.367,0,0,0,3.941-1.478Z" transform="translate(-10.719 -4.495)" fill="#da291c"/>
  <path id="Path_70" data-name="Path 70" d="M61.434.2v9.976a6.6,6.6,0,0,1,5.6-2.709c5.111,0,7.328,3.448,7.328,8.744v9.483H69.932V16.272c0-3.264-1.724-4.68-4.064-4.68-2.648,0-4.434,2.217-4.434,4.926v9.175H57V.2Z" transform="translate(-21.9 -0.077)" fill="#da291c"/>
  <path id="Path_71" data-name="Path 71" d="M102.986,18.99c-.308-2.34-2.094-3.51-4.68-3.51a4.883,4.883,0,0,0-5.049,3.51h9.73Zm-9.73,3.695c.308,2.217,2.217,3.818,5.357,3.818a7.447,7.447,0,0,0,4.8-1.663l2.833,2.833a11,11,0,0,1-7.7,2.894c-6.158,0-9.853-3.818-9.853-9.545,0-5.481,3.695-9.422,9.545-9.422,6.035,0,9.73,3.695,9.052,11.084H93.257Z" transform="translate(-34.079 -4.457)" fill="#da291c"/>
  <path id="Path_72" data-name="Path 72" d="M127,2.648a2.648,2.648,0,0,0-5.3,0A2.628,2.628,0,0,0,124.348,5.3,2.709,2.709,0,0,0,127,2.648m-4.8,22.969h4.434V7.636h-4.434Z" transform="translate(-46.758)" fill="#da291c"/>
  <path id="Path_73" data-name="Path 73" d="M137.734,16.742a5.174,5.174,0,1,0,10.345,0,5.115,5.115,0,0,0-5.234-5.234,4.981,4.981,0,0,0-5.111,5.234M152.759.3V25.732h-4.126l-.308-2.463a6.532,6.532,0,0,1-5.788,2.894c-5.3,0-9.237-3.51-9.237-9.422,0-6.158,3.88-9.422,9.114-9.422,1.909,0,4.865,1.047,5.912,2.894V.3Z" transform="translate(-51.215 -0.115)" fill="#da291c"/>
  <path id="Path_74" data-name="Path 74" d="M183.086,18.99c-.308-2.34-2.094-3.51-4.68-3.51a4.883,4.883,0,0,0-5.049,3.51h9.73Zm-9.73,3.695c.308,2.217,2.217,3.818,5.357,3.818a7.447,7.447,0,0,0,4.8-1.663l2.833,2.833a11,11,0,0,1-7.7,2.894c-6.158,0-9.853-3.818-9.853-9.545,0-5.481,3.695-9.422,9.545-9.422,6.035,0,9.73,3.695,9.052,11.084h-14.04Z" transform="translate(-64.854 -4.457)" fill="#da291c"/>
  <path id="Path_75" data-name="Path 75" d="M205.472,19.768c0,3.141,2.463,4.926,5.357,4.926s5.3-1.847,5.3-4.926-2.34-4.988-5.3-4.988c-2.833,0-5.357,1.663-5.357,4.988M217.542,9.3l3.264,2.463-2.278,2.648a7.922,7.922,0,0,1,2.094,5.357,6.843,6.843,0,0,1-4.434,6.712c3.818,1.355,4.434,4.064,4.434,5.85,0,5.111-4.988,7.574-9.791,7.574-6.22,0-9.853-3.141-9.668-8.252H205.6c-.123,2.525,2.463,3.941,5.3,3.941,2.463,0,5.173-1.047,5.173-3.264,0-2.155-1.724-3.51-5.111-3.51-5.912,0-9.853-3.448-9.853-9.052,0-6.035,4.8-9.114,9.853-9.114a9.307,9.307,0,0,1,4.618,1.108Z" transform="translate(-77.264 -3.573)" fill="#da291c"/>
  <path id="Path_76" data-name="Path 76" d="M239.534,19.768c0,3.141,2.463,4.926,5.357,4.926s5.3-1.847,5.3-4.926-2.34-4.988-5.3-4.988-5.357,1.663-5.357,4.988M251.542,9.3l3.264,2.463-2.278,2.648a7.922,7.922,0,0,1,2.094,5.357,6.843,6.843,0,0,1-4.434,6.712c3.818,1.355,4.434,4.064,4.434,5.85,0,5.111-4.988,7.574-9.791,7.574-6.22,0-9.853-3.141-9.668-8.252H239.6c-.123,2.525,2.463,3.941,5.3,3.941,2.463,0,5.173-1.047,5.173-3.264,0-2.155-1.724-3.51-5.111-3.51-5.912,0-9.853-3.448-9.853-9.052,0-6.035,4.8-9.114,9.853-9.114a9.307,9.307,0,0,1,4.618,1.108Z" transform="translate(-90.327 -3.573)" fill="#da291c"/>
  <path id="Path_77" data-name="Path 77" d="M283.548,18.99c-.308-2.34-2.094-3.51-4.68-3.51a4.883,4.883,0,0,0-5.05,3.51h9.73Zm-9.791,3.695c.308,2.217,2.217,3.818,5.357,3.818a7.447,7.447,0,0,0,4.8-1.663l2.833,2.833a11,11,0,0,1-7.7,2.894c-6.158,0-9.853-3.818-9.853-9.545,0-5.481,3.695-9.422,9.545-9.422,6.035,0,9.73,3.695,9.052,11.084h-14.04Z" transform="translate(-103.429 -4.457)" fill="#da291c"/>
  <path id="Path_78" data-name="Path 78" d="M307.064,12.231l.308,2.094a5.264,5.264,0,0,1,5.049-2.525,6.814,6.814,0,0,1,4.618,1.724L315.008,17.4a4.533,4.533,0,0,0-3.2-1.17c-2.34,0-4.5,1.232-4.5,4.557v9.483H303V12.231Z" transform="translate(-116.415 -4.534)" fill="#da291c"/>
  <path id="Path_79" data-name="Path 79" d="M160.93,54.4V51.7a2.877,2.877,0,0,0-.185-1.047,2.129,2.129,0,0,0-.431-.739,2.735,2.735,0,0,0-.677-.493,1.967,1.967,0,0,0-.862-.185,2.183,2.183,0,0,0-1.724.8l-.062-.739H156v5.049h1.047V51.7a1.8,1.8,0,0,1,.123-.554,1.341,1.341,0,0,1,.308-.493,1.1,1.1,0,0,1,.431-.308,1.8,1.8,0,0,1,.554-.123,1.212,1.212,0,0,1,.985.369,1.449,1.449,0,0,1,.369,1.047v2.709h1.108Zm-9.606-3.941a1.861,1.861,0,0,1,.985-.308,1.761,1.761,0,0,1,1.047.308,1.112,1.112,0,0,1,.431.924h-3.079a1.463,1.463,0,0,1,.616-.924m3.448.431a2.221,2.221,0,0,0-.493-.924,2.088,2.088,0,0,0-.862-.554,2.983,2.983,0,0,0-1.108-.185,3.487,3.487,0,0,0-1.108.185,2.583,2.583,0,0,0-.862.554,2.088,2.088,0,0,0-.554.862,2.877,2.877,0,0,0-.185,1.047,2.984,2.984,0,0,0,.185,1.108,2.583,2.583,0,0,0,.554.862,2.088,2.088,0,0,0,.862.554,3.221,3.221,0,0,0,1.108.185,2.31,2.31,0,0,0,.616-.062,2.346,2.346,0,0,0,.616-.185c.185-.062.369-.185.554-.246a2.679,2.679,0,0,0,.431-.369l-.677-.677a1.834,1.834,0,0,1-.677.431,4.238,4.238,0,0,1-.8.123,1.506,1.506,0,0,1-1.108-.369,1.169,1.169,0,0,1-.493-.924H154.9a5.058,5.058,0,0,0-.123-1.416m-8.128-.616a1.341,1.341,0,0,1,.493.308,3.417,3.417,0,0,1,.369.493,2.214,2.214,0,0,1,.123.677,1.822,1.822,0,0,1-.123.616.958.958,0,0,1-.369.493,1.191,1.191,0,0,1-.554.308,2.214,2.214,0,0,1-.677.123,1.822,1.822,0,0,1-.616-.123,2.5,2.5,0,0,1-.554-.308,3.417,3.417,0,0,1-.369-.493,1.924,1.924,0,0,1,0-1.355,3.416,3.416,0,0,1,.369-.493,1.614,1.614,0,0,1,.554-.308,2.188,2.188,0,0,1,.616-.123c.308.062.493.123.739.185m.739-.739a1.347,1.347,0,0,0-.308-.185c-.123-.062-.246-.062-.369-.123-.123,0-.246-.062-.369-.062h-.308a2.553,2.553,0,0,0-.985.185,2.416,2.416,0,0,0-.862.493,2.54,2.54,0,0,0-.616.8,2.109,2.109,0,0,0-.246,1.108A2.877,2.877,0,0,0,143.5,52.8a2.343,2.343,0,0,0,.554.8,3.926,3.926,0,0,0,.862.493,2.983,2.983,0,0,0,1.108.185,2.191,2.191,0,0,1,1.17.308.835.835,0,0,1,.431.8,1.449,1.449,0,0,1-.123.493,1.632,1.632,0,0,1-.369.308,4.242,4.242,0,0,1-.493.185,1.7,1.7,0,0,1-.554.062,2.1,2.1,0,0,1-.616-.062,1.238,1.238,0,0,1-.493-.246l-.369-.369a1.16,1.16,0,0,1-.123-.493h-1.047a2.056,2.056,0,0,0,.185.924,1.505,1.505,0,0,0,.554.677,1.9,1.9,0,0,0,.862.431,2.983,2.983,0,0,0,1.108.185,5.389,5.389,0,0,0,.985-.123,2.159,2.159,0,0,0,.862-.369,2.2,2.2,0,0,0,.616-.677,1.484,1.484,0,0,0,.246-.924,1.53,1.53,0,0,0-.062-.493,3,3,0,0,0-.185-.431,2.845,2.845,0,0,0-.431-.431,1.926,1.926,0,0,0-.616-.308,1.851,1.851,0,0,0,.985-.8,1.969,1.969,0,0,0,.308-1.17,3.634,3.634,0,0,0-.123-.862,2.576,2.576,0,0,0-.493-.739l.616-.677-.739-.616Zm-5.3,4.865V51.7a2.876,2.876,0,0,0-.185-1.047,2.129,2.129,0,0,0-.431-.739,2.734,2.734,0,0,0-.677-.493,1.967,1.967,0,0,0-.862-.185,2.183,2.183,0,0,0-1.724.8l-.062-.739h-.985v5.049h1.047V51.7a1.8,1.8,0,0,1,.123-.554,1.341,1.341,0,0,1,.308-.493,1.1,1.1,0,0,1,.431-.308,1.8,1.8,0,0,1,.554-.123,1.212,1.212,0,0,1,.985.369,1.449,1.449,0,0,1,.369,1.047v2.709h1.108ZM134.7,48.37a.665.665,0,0,0,.431.185.559.559,0,0,0,.431-.185.749.749,0,0,0,0-.985.665.665,0,0,0-.431-.185.559.559,0,0,0-.431.185.606.606,0,0,0-.185.493.7.7,0,0,0,.185.493m-.062,6.035h1.047V49.355h-1.047Zm-2.586-7.143v2.894a.905.905,0,0,0-.308-.369c-.123-.123-.308-.185-.431-.308-.185-.062-.308-.123-.493-.185a1.356,1.356,0,0,0-.493-.062,2.876,2.876,0,0,0-1.047.185,3.491,3.491,0,0,0-.8.493,2.343,2.343,0,0,0-.554.8,3.418,3.418,0,0,0,0,2.217,1.875,1.875,0,0,0,.554.8,2.173,2.173,0,0,0,.8.493,2.876,2.876,0,0,0,1.047.185,2.789,2.789,0,0,0,.985-.185,2.056,2.056,0,0,0,.8-.677l.062.8h.985V47.262Zm-1.108,3.079a1.341,1.341,0,0,1,.493.308,3.416,3.416,0,0,1,.369.493,1.924,1.924,0,0,1,0,1.355,1.454,1.454,0,0,1-.369.554,1.341,1.341,0,0,1-.493.308,2.188,2.188,0,0,1-.616.123,1.822,1.822,0,0,1-.616-.123,1.341,1.341,0,0,1-.493-.308,1.191,1.191,0,0,1-.308-.554,1.924,1.924,0,0,1,0-1.355,1.292,1.292,0,0,1,.8-.8,2.188,2.188,0,0,1,.616-.123,1.822,1.822,0,0,1,.616.123m-5.481-1.971a.665.665,0,0,0,.431.185.559.559,0,0,0,.431-.185.749.749,0,0,0,0-.985.665.665,0,0,0-.431-.185.559.559,0,0,0-.431.185.606.606,0,0,0-.185.493.7.7,0,0,0,.185.493M125.4,54.4h1.047V49.355H125.4Zm-4.68-3.941a1.861,1.861,0,0,1,.985-.308,1.761,1.761,0,0,1,1.047.308,1.112,1.112,0,0,1,.431.924H120.1a1.463,1.463,0,0,1,.616-.924m3.387.431a2.221,2.221,0,0,0-.493-.924,2.088,2.088,0,0,0-.862-.554,2.983,2.983,0,0,0-1.108-.185,3.487,3.487,0,0,0-1.108.185,2.583,2.583,0,0,0-.862.554,2.088,2.088,0,0,0-.554.862,3.128,3.128,0,0,0-.185,1.047,2.983,2.983,0,0,0,.185,1.108,2.583,2.583,0,0,0,.554.862,2.088,2.088,0,0,0,.862.554,3.22,3.22,0,0,0,1.108.185,2.31,2.31,0,0,0,.616-.062,2.346,2.346,0,0,0,.616-.185c.185-.062.369-.185.554-.246a2.678,2.678,0,0,0,.431-.369l-.677-.677a1.834,1.834,0,0,1-.677.431,4.238,4.238,0,0,1-.8.123,1.505,1.505,0,0,1-1.108-.369,1.169,1.169,0,0,1-.493-.924h4.126a3.485,3.485,0,0,0-.123-1.416m-7.39,3.51h1.047V47.262h-1.047Zm-5.6,2.34V53.666c.123.185.185.308.369.369a1.544,1.544,0,0,0,.431.246,1.449,1.449,0,0,0,.493.123,1.356,1.356,0,0,0,.493.062,2.876,2.876,0,0,0,1.047-.185,1.875,1.875,0,0,0,.8-.554,1.985,1.985,0,0,0,.493-.862,3.058,3.058,0,0,0,0-2.094,2.531,2.531,0,0,0-.493-.8,2.343,2.343,0,0,0-.8-.554,2.876,2.876,0,0,0-1.047-.185,1.807,1.807,0,0,0-.985.246,1.7,1.7,0,0,0-.8.677l-.062-.8H110v7.39h1.108Zm.985-3.387a.958.958,0,0,1-.493-.369,1.341,1.341,0,0,1-.308-.493,2.188,2.188,0,0,1-.123-.616,1.822,1.822,0,0,1,.123-.616,1.341,1.341,0,0,1,.308-.493,3.415,3.415,0,0,1,.493-.369,2.214,2.214,0,0,1,.677-.123,1.488,1.488,0,0,1,1.6,1.6,2.619,2.619,0,0,1-.123.677,1.292,1.292,0,0,1-.8.8,2.188,2.188,0,0,1-.616.123,2.646,2.646,0,0,1-.739-.123m-5.3-3.017a.958.958,0,0,1,.493.369,1.614,1.614,0,0,1,.308.554,2.188,2.188,0,0,1,.123.616,1.822,1.822,0,0,1-.123.616,1.341,1.341,0,0,1-.308.493,3.415,3.415,0,0,1-.493.369,2.214,2.214,0,0,1-.677.123,1.822,1.822,0,0,1-.616-.123.958.958,0,0,1-.493-.369,1.341,1.341,0,0,1-.308-.493,2.188,2.188,0,0,1-.123-.616,1.822,1.822,0,0,1,.123-.616,2.5,2.5,0,0,1,.308-.554,3.416,3.416,0,0,1,.493-.369,2.188,2.188,0,0,1,.616-.123,1.9,1.9,0,0,1,.677.123m-1.663-.924a1.875,1.875,0,0,0-.8.554,2.088,2.088,0,0,0-.554.862,3.059,3.059,0,0,0,0,2.094,2.531,2.531,0,0,0,.493.8,2.343,2.343,0,0,0,.8.554,2.877,2.877,0,0,0,1.047.185,3.487,3.487,0,0,0,1.108-.185,1.875,1.875,0,0,0,.8-.554,2.343,2.343,0,0,0,.554-.8,3.058,3.058,0,0,0,0-2.094,2.583,2.583,0,0,0-.554-.862,2.343,2.343,0,0,0-.8-.554,3.058,3.058,0,0,0-2.094,0" transform="translate(-39.804 -18.135)"/>
</svg>
