<svg xmlns="http://www.w3.org/2000/svg" width="50" height="50" viewBox="0 0 50 50">
  <g id="Group_97" data-name="Group 97" transform="translate(-995 -5837)">
    <g id="Ellipse_582" data-name="Ellipse 582" transform="translate(995 5837)" fill="#1a1a1a" stroke="#303030" stroke-width="1">
      <circle cx="25" cy="25" r="25" stroke="none"/>
      <circle cx="25" cy="25" r="24.5" fill="none"/>
    </g>
    <path id="dribble" d="M13.642,19.305l.049-.017C23.88,15.244,21.061,0,10.01,0a10,10,0,1,0,3.632,19.305ZM4.405,16.713a12.89,12.89,0,0,1,6.936-5.721,21.037,21.037,0,0,1,1.453,7.295,8.711,8.711,0,0,1-8.389-1.574Zm9.619,1.052A22.412,22.412,0,0,0,12.6,10.711a11.349,11.349,0,0,1,6.027.822A8.769,8.769,0,0,1,14.025,17.765Zm4.731-7.525a12.151,12.151,0,0,0-6.639-.695c-.3-.667-.607-1.307-.937-1.9a16.687,16.687,0,0,0,5.453-3.358A8.63,8.63,0,0,1,18.756,10.241ZM15.745,3.4a16.059,16.059,0,0,1-5.222,3.141A23.388,23.388,0,0,0,6.687,1.908,8.714,8.714,0,0,1,15.745,3.4ZM5.491,2.519A22,22,0,0,1,9.285,6.982,27.57,27.57,0,0,1,1.436,8.21,8.765,8.765,0,0,1,5.491,2.519ZM1.278,9.465A28.833,28.833,0,0,0,9.961,8.092c.314.549.611,1.147.9,1.769A14.543,14.543,0,0,0,3.5,15.826,8.629,8.629,0,0,1,1.278,9.465Z" transform="translate(1010 5852)" fill="#fff"/>
  </g>
</svg>
