<svg id="yves-rocher-logo" xmlns="http://www.w3.org/2000/svg" width="150.461" height="61.829" viewBox="0 0 150.461 61.829">
  <path id="Path_18" data-name="Path 18" d="M24.444,2.106A16.743,16.743,0,1,0,41.187,18.849,16.744,16.744,0,0,0,24.444,2.106" transform="translate(1.314 0.359)" fill="#fff"/>
  <path id="Path_19" data-name="Path 19" d="M20.991,32.422a13.778,13.778,0,0,1-9.641-16.234l.054.006A10.482,10.482,0,0,1,20.99,26.786ZM30.56,11.538c.287,4.76-2.441,8.514-6.62,10.557a13.106,13.106,0,0,0,11,6.373,13.724,13.724,0,0,1-11.3,4.435l0-10.979a10.848,10.848,0,0,1,6.919-10.386M12.165,13.674a13.764,13.764,0,1,1,24.646,12.2,11.258,11.258,0,0,1-9.085-3.081C32.46,19.569,33.754,13.7,32.834,8.04,27.22,9.515,22.176,13.194,21.321,19.282a13.022,13.022,0,0,0-9.156-5.609m-6.579,5.52A19.193,19.193,0,1,1,24.778,38.387,19.191,19.191,0,0,1,5.586,19.193M24.778,2.86A16.333,16.333,0,1,0,41.113,19.193,16.332,16.332,0,0,0,24.778,2.86" transform="translate(0.953)" fill="#889840"/>
  <path id="Path_20" data-name="Path 20" d="M150.461,54.568h-3.1l-2.662-5.39h-3.219v5.39h-2.762V41.03H146.1a4.076,4.076,0,0,1,1.426,7.89ZM141.483,43.4v3.609h4.1a1.8,1.8,0,0,0,.011-3.609ZM31.823,46.852h5.089v2.327H31.823v2.962h7.133v2.428H29.062V41.03h9.893v2.428H31.823Zm42.4,7.716h-3.1L68.46,49.18H65.24v5.389h-2.76V41.03h7.381a4.075,4.075,0,0,1,1.424,7.89ZM65.24,43.4v3.61h4.1a1.805,1.805,0,0,0,.011-3.61Zm13.814,4.392a4.426,4.426,0,1,0,4.435-4.555,4.509,4.509,0,0,0-4.435,4.555m11.66,0a7.237,7.237,0,1,1-7.227-7.063,7.087,7.087,0,0,1,7.227,7.063m37.427-.939h5.091v2.327h-5.092v2.962h7.135v2.428h-9.9V41.03h9.895v2.428h-7.134Zm-9.833,2.327H112.8v5.39h-2.762V41.03H112.8v5.723h5.509V41.03h2.759V54.569h-2.759ZM44.643,44.611c0,.843.171,1.072,3.135,1.755a9.805,9.805,0,0,1,3.3,1.171,3.488,3.488,0,0,1,1.613,3c0,2.73-2.144,4.334-5.473,4.334-3.36,0-5.486-1.647-5.694-4.5h2.743c.24,1.487,1.248,2.213,3.128,2.213,1.688,0,2.572-.741,2.572-1.826,0-.594-.236-.955-.966-1.319a8.551,8.551,0,0,0-1.133-.377l-.5-.117-.276-.059a13.251,13.251,0,0,1-3.692-1.311,3.149,3.149,0,0,1-1.415-2.763c0-2.511,2.043-4.08,5.082-4.08,2.977,0,4.847,1.425,5.1,4h-2.7c-.288-1.2-1.077-1.729-2.53-1.729-1.514,0-2.278.644-2.278,1.611M16.667,41.03,20.02,51.045,23.41,41.03h2.948l-4.9,13.539H18.52L13.682,41.03ZM5.1,54.569V49.352L0,41.03H3.2l3.334,5.846L9.826,41.03h3.12L7.865,49.371v5.2ZM93.16,47.832a7.272,7.272,0,0,1,14-2.587l.121.318h-3.03a4.446,4.446,0,0,0-3.852-2.327,4.567,4.567,0,0,0,0,9.13,4.446,4.446,0,0,0,3.852-2.327h3.029l-.121.318a7.131,7.131,0,0,1-6.76,4.517,7.049,7.049,0,0,1-7.24-7.042" transform="translate(0 6.952)" fill="#68513f" fill-rule="evenodd"/>
</svg>
